<svg width="15" height="19" viewBox="0 0 15 19" fill="none" xmlns="http://www.w3.org/2000/svg">
<path fill-rule="evenodd" clip-rule="evenodd" d="M7.61391 18.868C8.64058 18.868 9.48058 18.028 9.48058 17.0013H5.74725C5.74725 18.028 6.57791 18.868 7.61391 18.868ZM13.2139 13.268V8.6013C13.2139 5.73597 11.6832 3.3373 9.01392 2.70264V2.06797C9.01392 1.2933 8.38858 0.667969 7.61392 0.667969C6.83925 0.667969 6.21392 1.2933 6.21392 2.06797V2.70264C3.53525 3.3373 2.01392 5.72664 2.01392 8.6013V13.268L0.809915 14.472C0.221915 15.06 0.632582 16.068 1.46325 16.068H13.7552C14.5859 16.068 15.0059 15.06 14.4179 14.472L13.2139 13.268Z" fill="#7B7F91"/>
</svg>
