<svg
      width="192"
      height="27"
      viewBox="0 0 192 27"
      fill="none"
      xmlns="http://www.w3.org/2000/svg">
      <path
        d="M15.5632 8.38423C15.4666 7.41027 15.0521 6.65365 14.3196 6.11435C13.5871 5.57505 12.593 5.3054 11.3374 5.3054C10.4841 5.3054 9.76373 5.42614 9.17614 5.66761C8.58854 5.90104 8.13778 6.22704 7.82386 6.6456C7.51799 7.06416 7.36506 7.53906 7.36506 8.07031C7.34896 8.51302 7.44152 8.89938 7.64276 9.2294C7.85204 9.55942 8.13778 9.84517 8.5 10.0866C8.86222 10.3201 9.28078 10.5253 9.75568 10.7024C10.2306 10.8714 10.7377 11.0163 11.277 11.1371L13.4986 11.6683C14.5772 11.9098 15.5672 12.2318 16.4688 12.6342C17.3703 13.0367 18.151 13.5317 18.8111 14.1193C19.4711 14.7069 19.9822 15.3991 20.3445 16.196C20.7147 16.9929 20.9039 17.9065 20.9119 18.9368C20.9039 20.45 20.5175 21.7621 19.7528 22.8729C18.9962 23.9756 17.9015 24.8329 16.4688 25.4446C15.044 26.0483 13.3255 26.3501 11.3132 26.3501C9.317 26.3501 7.57836 26.0443 6.0973 25.4325C4.62429 24.8208 3.47325 23.9152 2.64418 22.7159C1.82315 21.5085 1.39252 20.0154 1.35227 18.2365H6.41122C6.46757 19.0656 6.70502 19.7578 7.12358 20.3132C7.55019 20.8606 8.11766 21.2751 8.82599 21.5568C9.54238 21.8305 10.3513 21.9673 11.2528 21.9673C12.1383 21.9673 12.907 21.8385 13.5589 21.581C14.219 21.3234 14.7301 20.9652 15.0923 20.5064C15.4545 20.0476 15.6357 19.5204 15.6357 18.9247C15.6357 18.3693 15.4706 17.9025 15.1406 17.5241C14.8187 17.1458 14.3438 16.8239 13.7159 16.5582C13.0961 16.2926 12.3355 16.0511 11.4339 15.8338L8.74148 15.1577C6.65672 14.6506 5.01065 13.8577 3.80327 12.7791C2.59588 11.7005 1.99621 10.2476 2.00426 8.42045C1.99621 6.92329 2.39465 5.61529 3.19957 4.49645C4.01255 3.3776 5.12737 2.50426 6.54403 1.87642C7.9607 1.24858 9.57055 0.934658 11.3736 0.934658C13.2088 0.934658 14.8106 1.24858 16.179 1.87642C17.5554 2.50426 18.6259 3.3776 19.3906 4.49645C20.1553 5.61529 20.5497 6.91122 20.5739 8.38423H15.5632ZM39.8019 1.27273H45.0299V17.331C45.0299 19.134 44.5992 20.7116 43.738 22.0639C42.8847 23.4162 41.6894 24.4706 40.152 25.2273C38.6146 25.9759 36.8237 26.3501 34.7792 26.3501C32.7266 26.3501 30.9316 25.9759 29.3942 25.2273C27.8568 24.4706 26.6615 23.4162 25.8083 22.0639C24.9551 20.7116 24.5284 19.134 24.5284 17.331V1.27273H29.7564V16.8842C29.7564 17.826 29.9617 18.6631 30.3722 19.3956C30.7908 20.1281 31.3784 20.7036 32.135 21.1222C32.8916 21.5407 33.773 21.75 34.7792 21.75C35.7934 21.75 36.6748 21.5407 37.4233 21.1222C38.18 20.7036 38.7635 20.1281 39.174 19.3956C39.5926 18.6631 39.8019 17.826 39.8019 16.8842V1.27273ZM70.1137 1.27273V26H65.5981L54.8403 10.4368H54.6592V26H49.4312V1.27273H54.0192L64.6925 16.8239H64.9099V1.27273H70.1137ZM74.5331 26V1.27273H90.9053V5.5831H79.7611V11.4751H89.8186V15.7855H79.7611V26H74.5331ZM117.245 13.6364C117.245 16.3329 116.734 18.6269 115.711 20.5185C114.697 22.41 113.313 23.8549 111.558 24.853C109.811 25.843 107.847 26.3381 105.666 26.3381C103.469 26.3381 101.496 25.839 99.7498 24.8409C98.0031 23.8428 96.6227 22.398 95.6085 20.5064C94.5942 18.6148 94.0871 16.3248 94.0871 13.6364C94.0871 10.9399 94.5942 8.64583 95.6085 6.75426C96.6227 4.86269 98.0031 3.42187 99.7498 2.43182C101.496 1.43371 103.469 0.934658 105.666 0.934658C107.847 0.934658 109.811 1.43371 111.558 2.43182C113.313 3.42187 114.697 4.86269 115.711 6.75426C116.734 8.64583 117.245 10.9399 117.245 13.6364ZM111.944 13.6364C111.944 11.8897 111.683 10.4167 111.16 9.21733C110.644 8.01799 109.916 7.10843 108.974 6.48864C108.032 5.86885 106.93 5.55895 105.666 5.55895C104.402 5.55895 103.3 5.86885 102.358 6.48864C101.416 7.10843 100.684 8.01799 100.16 9.21733C99.6451 10.4167 99.3876 11.8897 99.3876 13.6364C99.3876 15.383 99.6451 16.8561 100.16 18.0554C100.684 19.2547 101.416 20.1643 102.358 20.7841C103.3 21.4039 104.402 21.7138 105.666 21.7138C106.93 21.7138 108.032 21.4039 108.974 20.7841C109.916 20.1643 110.644 19.2547 111.16 18.0554C111.683 16.8561 111.944 15.383 111.944 13.6364ZM143.035 9.92969H137.747C137.65 9.2455 137.453 8.63778 137.155 8.10653C136.857 7.56723 136.475 7.10843 136.008 6.73011C135.541 6.3518 135.002 6.06203 134.39 5.86079C133.786 5.65956 133.13 5.55895 132.422 5.55895C131.142 5.55895 130.027 5.87689 129.078 6.51278C128.128 7.14062 127.391 8.05824 126.868 9.26562C126.345 10.465 126.083 11.9219 126.083 13.6364C126.083 15.3991 126.345 16.8802 126.868 18.0795C127.399 19.2789 128.14 20.1844 129.09 20.7962C130.039 21.4079 131.138 21.7138 132.386 21.7138C133.086 21.7138 133.734 21.6212 134.33 21.4361C134.933 21.2509 135.469 20.9813 135.936 20.6271C136.402 20.2649 136.789 19.8262 137.095 19.3111C137.409 18.7959 137.626 18.2083 137.747 17.5483L143.035 17.5724C142.898 18.7074 142.556 19.8021 142.009 20.8565C141.469 21.9029 140.741 22.8407 139.823 23.6697C138.914 24.4908 137.827 25.1428 136.563 25.6257C135.308 26.1006 133.887 26.3381 132.301 26.3381C130.096 26.3381 128.124 25.839 126.385 24.8409C124.655 23.8428 123.286 22.398 122.28 20.5064C121.282 18.6148 120.783 16.3248 120.783 13.6364C120.783 10.9399 121.29 8.64583 122.304 6.75426C123.318 4.86269 124.695 3.42187 126.433 2.43182C128.172 1.43371 130.128 0.934658 132.301 0.934658C133.734 0.934658 135.062 1.13589 136.286 1.53835C137.517 1.94081 138.608 2.52841 139.558 3.30113C140.508 4.06581 141.28 5.00355 141.876 6.11435C142.48 7.22514 142.866 8.49692 143.035 9.92969ZM162.157 1.27273H167.385V17.331C167.385 19.134 166.955 20.7116 166.093 22.0639C165.24 23.4162 164.045 24.4706 162.508 25.2273C160.97 25.9759 159.179 26.3501 157.135 26.3501C155.082 26.3501 153.287 25.9759 151.75 25.2273C150.212 24.4706 149.017 23.4162 148.164 22.0639C147.311 20.7116 146.884 19.134 146.884 17.331V1.27273H152.112V16.8842C152.112 17.826 152.317 18.6631 152.728 19.3956C153.146 20.1281 153.734 20.7036 154.49 21.1222C155.247 21.5407 156.128 21.75 157.135 21.75C158.149 21.75 159.03 21.5407 159.779 21.1222C160.535 20.7036 161.119 20.1281 161.53 19.3956C161.948 18.6631 162.157 17.826 162.157 16.8842V1.27273ZM185.201 8.38423C185.104 7.41027 184.69 6.65365 183.957 6.11435C183.225 5.57505 182.231 5.3054 180.975 5.3054C180.122 5.3054 179.401 5.42614 178.814 5.66761C178.226 5.90104 177.775 6.22704 177.461 6.6456C177.155 7.06416 177.003 7.53906 177.003 8.07031C176.986 8.51302 177.079 8.89938 177.28 9.2294C177.49 9.55942 177.775 9.84517 178.137 10.0866C178.5 10.3201 178.918 10.5253 179.393 10.7024C179.868 10.8714 180.375 11.0163 180.914 11.1371L183.136 11.6683C184.215 11.9098 185.205 12.2318 186.106 12.6342C187.008 13.0367 187.789 13.5317 188.449 14.1193C189.109 14.7069 189.62 15.3991 189.982 16.196C190.352 16.9929 190.541 17.9065 190.549 18.9368C190.541 20.45 190.155 21.7621 189.39 22.8729C188.634 23.9756 187.539 24.8329 186.106 25.4446C184.682 26.0483 182.963 26.3501 180.951 26.3501C178.954 26.3501 177.216 26.0443 175.735 25.4325C174.262 24.8208 173.111 23.9152 172.282 22.7159C171.461 21.5085 171.03 20.0154 170.99 18.2365H176.049C176.105 19.0656 176.343 19.7578 176.761 20.3132C177.188 20.8606 177.755 21.2751 178.463 21.5568C179.18 21.8305 179.989 21.9673 180.89 21.9673C181.776 21.9673 182.544 21.8385 183.196 21.581C183.856 21.3234 184.368 20.9652 184.73 20.5064C185.092 20.0476 185.273 19.5204 185.273 18.9247C185.273 18.3693 185.108 17.9025 184.778 17.5241C184.456 17.1458 183.981 16.8239 183.353 16.5582C182.734 16.2926 181.973 16.0511 181.071 15.8338L178.379 15.1577C176.294 14.6506 174.648 13.8577 173.441 12.7791C172.233 11.7005 171.634 10.2476 171.642 8.42045C171.634 6.92329 172.032 5.61529 172.837 4.49645C173.65 3.3776 174.765 2.50426 176.182 1.87642C177.598 1.24858 179.208 0.934658 181.011 0.934658C182.846 0.934658 184.448 1.24858 185.816 1.87642C187.193 2.50426 188.263 3.3776 189.028 4.49645C189.793 5.61529 190.187 6.91122 190.211 8.38423H185.201Z"
        fill="#0000E9"
      />
      <path
        d="M105.475 14.5L99.9755 9C92.7755 15 96.9755 19.1667 99.9755 20.5L105.475 14.5Z"
        fill="#0000E9"
      />
    </svg>