<svg width="16" height="12" viewBox="0 0 16 12" fill="none" xmlns="http://www.w3.org/2000/svg">
<path d="M10.9091 4.8365C12.1164 4.8365 13.0836 3.75635 13.0836 2.41825C13.0836 1.08015 12.1164 0 10.9091 0C9.70182 0 8.72727 1.08015 8.72727 2.41825C8.72727 3.75635 9.70182 4.8365 10.9091 4.8365ZM5.09091 4.8365C6.29818 4.8365 7.26545 3.75635 7.26545 2.41825C7.26545 1.08015 6.29818 0 5.09091 0C3.88364 0 2.90909 1.08015 2.90909 2.41825C2.90909 3.75635 3.88364 4.8365 5.09091 4.8365ZM5.09091 6.44867C3.39636 6.44867 0 7.39179 0 9.26996V11.2852H10.1818V9.26996C10.1818 7.39179 6.78545 6.44867 5.09091 6.44867ZM10.9091 6.44867C10.6982 6.44867 10.4582 6.46479 10.2036 6.48897C11.0473 7.16608 11.6364 8.07696 11.6364 9.26996V11.2852H16V9.26996C16 7.39179 12.6036 6.44867 10.9091 6.44867Z" fill="#8F8F8F"/>
</svg>
