<svg width="14" height="15" viewBox="0 0 14 15" fill="none" xmlns="http://www.w3.org/2000/svg">
<path d="M12.4444 1.43629H9.19333C8.86667 0.603244 8.01111 0 7 0C5.98889 0 5.13333 0.603244 4.80667 1.43629H1.55556C0.7 1.43629 0 2.08263 0 2.87259V12.9267C0 13.7166 0.7 14.3629 1.55556 14.3629H12.4444C13.3 14.3629 14 13.7166 14 12.9267V2.87259C14 2.08263 13.3 1.43629 12.4444 1.43629ZM7 1.43629C7.42778 1.43629 7.77778 1.75946 7.77778 2.15444C7.77778 2.54942 7.42778 2.87259 7 2.87259C6.57222 2.87259 6.22222 2.54942 6.22222 2.15444C6.22222 1.75946 6.57222 1.43629 7 1.43629ZM8.55556 11.4904H3.11111V10.0541H8.55556V11.4904ZM10.8889 8.61777H3.11111V7.18147H10.8889V8.61777ZM10.8889 5.74518H3.11111V4.30888H10.8889V5.74518Z" fill="#8F8F8F"/>
</svg>
