<svg width="14" height="15" viewBox="0 0 14 15" fill="none" xmlns="http://www.w3.org/2000/svg">
<path d="M12.3485 7.88527C12.3773 7.65547 12.3989 7.42566 12.3989 7.18149C12.3989 6.93732 12.3773 6.70751 12.3485 6.4777L13.8669 5.29276C14.0037 5.18503 14.0396 4.99113 13.9533 4.83314L12.514 2.34835C12.4277 2.19035 12.2334 2.1329 12.075 2.19035L10.2831 2.9085C9.90892 2.62124 9.50593 2.38425 9.06695 2.20472L8.79349 0.301623C8.7719 0.129267 8.62077 0 8.44086 0H5.56231C5.38241 0 5.23128 0.129267 5.20969 0.301623L4.93623 2.20472C4.49725 2.38425 4.09425 2.62842 3.72004 2.9085L1.92815 2.19035C1.76263 2.12572 1.57552 2.19035 1.48917 2.34835L0.0498936 4.83314C-0.0436593 4.99113 -0.000480935 5.18503 0.13625 5.29276L1.65468 6.4777C1.6259 6.70751 1.60431 6.9445 1.60431 7.18149C1.60431 7.41848 1.6259 7.65547 1.65468 7.88527L0.13625 9.07022C-0.000480935 9.17794 -0.0364629 9.37184 0.0498936 9.52984L1.48917 12.0146C1.57552 12.1726 1.76983 12.2301 1.92815 12.1726L3.72004 11.4545C4.09425 11.7417 4.49725 11.9787 4.93623 12.1583L5.20969 14.0614C5.23128 14.2337 5.38241 14.363 5.56231 14.363H8.44086C8.62077 14.363 8.7719 14.2337 8.79349 14.0614L9.06695 12.1583C9.50593 11.9787 9.90892 11.7346 10.2831 11.4545L12.075 12.1726C12.2405 12.2373 12.4277 12.1726 12.514 12.0146L13.9533 9.52984C14.0396 9.37184 14.0037 9.17794 13.8669 9.07022L12.3485 7.88527ZM7.00159 9.69501C5.61269 9.69501 4.48286 8.56752 4.48286 7.18149C4.48286 5.79546 5.61269 4.66797 7.00159 4.66797C8.39049 4.66797 9.52032 5.79546 9.52032 7.18149C9.52032 8.56752 8.39049 9.69501 7.00159 9.69501Z" fill="#8F8F8F"/>
</svg>
