<svg width="14" height="15" viewBox="0 0 14 15" fill="none" xmlns="http://www.w3.org/2000/svg">
<path d="M13.7649 6.38119L7.48352 0.203395C7.20782 -0.0678082 6.79206 -0.0677787 6.51646 0.203366L0.235102 6.38122C0.0142472 6.59844 -0.0587056 6.93313 0.0491924 7.23385C0.157118 7.53456 0.41989 7.72885 0.718674 7.72885H1.72191V13.9185C1.72191 14.1639 1.90626 14.3629 2.13363 14.3629H5.57658C5.80394 14.3629 5.98829 14.164 5.98829 13.9185V10.1604H8.01177V13.9186C8.01177 14.164 8.19613 14.363 8.42349 14.363H11.8663C12.0936 14.363 12.278 14.164 12.278 13.9186V7.72885H13.2814C13.5802 7.72885 13.843 7.53453 13.9509 7.23385C14.0587 6.9331 13.9857 6.59844 13.7649 6.38119Z" fill="#8F8F8F"/>
</svg>
